<svg xmlns="http://www.w3.org/2000/svg" viewBox="0 0 434.4 220.2"><path fill="#283675" d="M70.8 152c0 10.8-8.4 16.3-25.3 16.3H25.8C8.6 168.3 0 162.9 0 152v-20.7c0-11.1 8.7-16.7 26.1-16.7h19.4c16.9 0 25.3 5.5 25.3 16.6V152zm-10.1-21.6c0-5.2-4.6-7.7-13.7-7.7H24.7c-10 0-15 2.9-15 8.6V152c0 5.4 5 8.1 15 8.1H47c9.2 0 13.7-2.7 13.7-8.1v-21.6zM161.2 152c0 10.8-8.4 16.3-25.3 16.3h-19.7c-17.2 0-25.8-5.4-25.8-16.3v-20.7c0-11.1 8.7-16.7 26.1-16.7h19.4c16.9 0 25.3 5.5 25.3 16.6V152zm-10-21.6c0-5.2-4.6-7.7-13.7-7.7h-22.3c-10 0-15 2.9-15 8.6V152c0 5.4 5 8.1 15 8.1h22.3c9.2 0 13.7-2.7 13.7-8.1v-21.6z"/><path fill="#808184" d="M253.2 152.6c0 10.4-9.1 15.7-27.4 15.7h-18.2c-17.9 0-26.8-4.9-26.8-14.8v-22.4c0-11 8.9-16.5 26.8-16.5h35.9v-12.7c0-2.9 1.6-4.3 4.8-4.3 3.3 0 5 1.4 5 4.3l-.1 50.7zm-9.7-29.8h-38c-10 0-14.9 3.2-14.9 9.5v19.2c0 5.8 4.8 8.6 14.3 8.6h22.4c10.8 0 16.1-2.9 16.1-8.6v-28.7h.1zM344 168.7c0 9.8-7.4 14.8-22.3 14.8h-12.2c-2.5 0-3.7-1.3-3.7-4 0-2.6 1.2-3.9 3.7-3.9h13.1c7.8 0 11.6-2.3 11.6-6.8v-.5h-35.9c-17 0-25.4-5.2-25.4-15.6V118c0-2.7 1.6-4.1 4.9-4.1 3.2 0 4.8 1.4 4.8 4.1v34.7c0 5 4.6 7.4 13.9 7.4h37.7V118c0-2.7 1.6-4.1 4.9-4.1 3.2 0 4.9 1.4 4.9 4.1v50.7zm90.4-4.3c0 2.9-1.6 4.3-4.9 4.3-3.3 0-5-1.4-5-4.3v-35.2c0-4.3-4.4-6.5-13.1-6.5h-24.5c-9 0-13.4 2.2-13.4 6.5v35.2c0 2.9-1.6 4.3-4.8 4.3-3.3 0-4.9-1.4-4.9-4.3v-35.2c0-9.7 8.6-14.6 25.9-14.6h18.9c17.3 0 26 4.9 26 14.6v35.2h-.2z"/><path fill="#283675" d="M281.1 37c-.7-20.8-17.5-37-38.2-37-8 0-15.8 2.5-22.3 7.2 6.4 6 10.8 13.8 12.6 22.4 2.4-2.7 5.9-4.3 9.7-4.3 7.2 0 13 5.8 13 13s-5.8 13-13 13c-5.4 0-10.4-3.4-12.2-8.6-.5-1.4-.8-2.9-.8-4.4 0-10.8-4.6-21.2-12.8-28.5l-.6-.5c-.6-.5-1-.9-1.5-1.2-6.7-5.2-15-8.1-23.5-8.1-20.8 0-37.6 16.3-38.2 37v2.5c.7 20.8 17.5 37 38.2 37 8 0 15.8-2.5 22.3-7.2-6.5-6-10.8-13.8-12.6-22.4-2.4 2.7-5.9 4.3-9.7 4.3-7.2 0-13-5.8-13-13s5.8-13 13-13c5.4 0 10.4 3.4 12.2 8.6.5 1.5.8 2.9.8 4.4 0 10.9 4.7 21.2 12.8 28.5l.8.7c.4.3.8.7 1.2 1 6.7 5.2 15 8.1 23.5 8.1 20.8 0 37.6-16.3 38.2-37v-1.9l.1-.6zM18.6 214.5l-2.6-5.6H5.7l-2.6 5.6H0l9.2-19.1h3.5l9 19.1h-3.1zm-7.7-17.1l-.1.4c-.3.8-.7 1.7-1.2 2.9L6.7 207h8.4l-2.9-6.3c-.3-.6-.6-1.3-.9-2.1l-.4-1.2zm12.8 17.1v-11.3c0-1 0-2.2-.1-3.4h2.7c.1 1.7.1 2.7.1 3h.1c.5-1.3 1-2.1 1.6-2.6s1.4-.7 2.5-.7c.4 0 .8 0 1.2.1v2.2c-.4-.1-.9-.1-1.5-.1-1.2 0-2.1.4-2.7 1.3s-.9 2.1-.9 3.8v7.7h-3zm12.7-7.4c0 2 .4 3.4 1.1 4.3s1.8 1.4 3.3 1.4c1 0 1.9-.2 2.6-.7s1.1-1.2 1.3-2.2l2.9.2c-.2 1.4-.9 2.5-2.1 3.4-1.2.8-2.7 1.3-4.5 1.3-2.4 0-4.3-.6-5.5-1.9-1.3-1.3-1.9-3.2-1.9-5.7s.6-4.4 1.9-5.7c1.3-1.3 3.1-1.9 5.5-1.9 1.8 0 3.2.4 4.4 1.2 1.2.8 1.9 1.9 2.2 3.2l-3 .2c-.2-.8-.5-1.5-1.1-1.9-.6-.5-1.5-.7-2.6-.7-1.5 0-2.6.4-3.3 1.3-.9.7-1.2 2.2-1.2 4.2zm16.7-4.8c.6-1 1.4-1.7 2.2-2.1.9-.4 2-.7 3.3-.7 1.9 0 3.3.4 4.1 1.2.9.8 1.3 2.1 1.3 4v9.8h-2.9v-9.3c0-1-.1-1.8-.3-2.3-.2-.5-.6-.9-1.1-1.1s-1.2-.4-2.1-.4c-1.4 0-2.4.4-3.3 1.2-.8.8-1.2 1.9-1.2 3.2v8.7h-2.9v-20.1h2.9v5.2c0 .6 0 1.1-.1 1.7 0 .6 0 1 .1 1zm14.9-5.6v-2.3h2.9v2.3H68zm0 17.8v-14.7h2.9v14.7H68zm13.6-.1c-.9.2-1.9.3-2.9.3-2.3 0-3.4-1.1-3.4-3.3v-9.8h-2v-1.8h2.1l.8-3.3h1.9v3.3h3.2v1.8h-3.2v9.3c0 .7.1 1.2.4 1.5s.7.4 1.4.4c.4 0 .9-.1 1.7-.2v1.8zm4.4-6.7c0 1.7.4 3 1.2 3.9.8.9 2 1.4 3.6 1.4 1.2 0 2.2-.2 3-.6.7-.4 1.3-1 1.5-1.6l2.5.6c-1 2.3-3.4 3.5-7 3.5-2.6 0-4.5-.6-5.8-1.9s-2-3.2-2-5.8c0-2.4.7-4.3 2-5.6 1.3-1.3 3.2-1.9 5.7-1.9 5.1 0 7.6 2.6 7.6 7.8v.3l-12.3-.1zm9.3-1.9c-.2-1.5-.6-2.7-1.4-3.4-.8-.7-1.9-1.1-3.3-1.1s-2.5.4-3.3 1.2c-.8.8-1.3 1.9-1.3 3.3h9.3zm8.5 1.3c0 2 .4 3.4 1.1 4.3s1.8 1.4 3.3 1.4c1 0 1.9-.2 2.6-.7s1.1-1.2 1.3-2.2l2.9.2c-.2 1.4-.9 2.5-2.1 3.4-1.2.8-2.7 1.3-4.5 1.3-2.4 0-4.3-.6-5.5-1.9-1.3-1.3-1.9-3.2-1.9-5.7s.6-4.4 1.9-5.7c1.3-1.3 3.1-1.9 5.5-1.9 1.8 0 3.2.4 4.4 1.2 1.2.8 1.9 1.9 2.2 3.2l-3 .2c-.2-.8-.5-1.5-1.1-1.9-.6-.5-1.5-.7-2.6-.7-1.5 0-2.6.4-3.3 1.3-.8.7-1.2 2.2-1.2 4.2zm20.5 7.3c-.9.2-1.9.3-2.9.3-2.3 0-3.4-1.1-3.4-3.3v-9.8h-2v-1.8h2.1l.8-3.3h1.9v3.3h3.2v1.8h-3.2v9.3c0 .7.1 1.2.4 1.5s.7.4 1.4.4c.4 0 .9-.1 1.7-.2v1.8zm4.9-14.6v9.3c0 1 .1 1.7.3 2.3.2.5.6.9 1.1 1.2.5.2 1.2.4 2.2.4 1.4 0 2.5-.4 3.3-1.2.8-.8 1.2-1.9 1.2-3.4v-8.5h2.9v11.5c0 1.7 0 2.8.1 3.1h-2.7v-1.1c0-.3 0-.7-.1-1.5-.7 1-1.4 1.7-2.3 2.2-.9.4-1.9.6-3.2.6-1.9 0-3.3-.4-4.2-1.2-.9-.8-1.3-2.1-1.3-4v-9.8l2.7.1zm15.1 14.7v-11.3c0-1 0-2.2-.1-3.4h2.7c.1 1.7.1 2.7.1 3h.1c.5-1.3 1-2.1 1.6-2.6s1.4-.7 2.5-.7c.4 0 .8 0 1.2.1v2.2c-.4-.1-.9-.1-1.5-.1-1.2 0-2.1.4-2.7 1.3s-.9 2.1-.9 3.8v7.7h-3zm12.7-6.8c0 1.7.4 3 1.2 3.9.8.9 2 1.4 3.6 1.4 1.2 0 2.2-.2 3-.6.7-.4 1.3-1 1.5-1.6l2.5.6c-1 2.3-3.4 3.5-7 3.5-2.6 0-4.5-.6-5.8-1.9s-2-3.2-2-5.8c0-2.4.7-4.3 2-5.6 1.3-1.3 3.2-1.9 5.7-1.9 5.1 0 7.6 2.6 7.6 7.8v.3l-12.3-.1zm9.4-1.9c-.2-1.5-.6-2.7-1.4-3.4-.8-.7-1.9-1.1-3.3-1.1s-2.5.4-3.3 1.2c-.8.8-1.3 1.9-1.3 3.3h9.3zm31.9 8.9c-1.9 0-3.5-.6-4.8-1.7-.8.6-1.7 1-2.7 1.4-1 .3-2.1.5-3.2.5-2.3 0-4.1-.5-5.3-1.4-1.3-.9-1.9-2.2-1.9-3.9 0-2.5 1.8-4.5 5.5-5.8-.4-.6-.7-1.2-.9-2-.3-.8-.4-1.5-.4-2.1 0-1.4.5-2.4 1.5-3.2 1-.7 2.4-1.1 4.1-1.1 1.6 0 2.9.3 3.9 1s1.5 1.6 1.5 2.8c0 1.1-.5 2-1.5 2.8s-2.7 1.7-5.1 2.5c1.2 1.9 2.7 3.7 4.7 5.6 1.2-1.5 2.1-3.4 2.7-5.6l2.3.6c-.7 2.3-1.8 4.4-3.4 6.4 1 .9 2.1 1.3 3.3 1.3.8 0 1.4-.1 1.9-.2v1.8c-.5.2-1.3.3-2.2.3zm-6.4-3.1c-2.1-2.1-3.8-4.2-5.1-6.2-2.5.9-3.8 2.3-3.8 4.1 0 1.1.4 2 1.2 2.6.8.6 1.9 1 3.4 1 .8 0 1.5-.1 2.3-.4.8-.3 1.5-.7 2-1.1zm1.2-12.5c0-.7-.3-1.2-.8-1.6s-1.3-.6-2.2-.6c-1 0-1.8.2-2.3.7s-.8 1.1-.8 1.9c0 1 .3 2.1 1 3.3 1.4-.5 2.4-.9 3.1-1.2.7-.4 1.1-.7 1.5-1.1.4-.4.5-.9.5-1.4zm38.4 5.7c0 2-.5 3.7-1.4 5.2s-2.2 2.6-3.8 3.4c-1.7.8-3.6 1.2-5.7 1.2h-8.4v-19.2h7.4c3.8 0 6.8.8 8.8 2.4 2.1 1.7 3.1 4 3.1 7zm-3 0c0-2.4-.8-4.2-2.3-5.4-1.5-1.2-3.7-1.9-6.6-1.9h-4.3v15h5c1.7 0 3.1-.3 4.4-.9 1.2-.6 2.2-1.5 2.9-2.7.5-1.2.9-2.6.9-4.1zm8.7 2.9c0 1.7.4 3 1.2 3.9.8.9 2 1.4 3.6 1.4 1.2 0 2.2-.2 3-.6.7-.4 1.3-1 1.5-1.6l2.5.6c-1 2.3-3.4 3.5-7 3.5-2.6 0-4.5-.6-5.8-1.9s-2-3.2-2-5.8c0-2.4.7-4.3 2-5.6 1.3-1.3 3.2-1.9 5.7-1.9 5.1 0 7.6 2.6 7.6 7.8v.3l-12.3-.1zm9.4-1.9c-.2-1.5-.6-2.7-1.4-3.4-.8-.7-1.9-1.1-3.3-1.1s-2.5.4-3.3 1.2c-.8.8-1.3 1.9-1.3 3.3h9.3zm-6.8-7.6v-.3l3.5-3.9h3.3v.4l-5.3 3.8h-1.5zm20.6 16.3H257l-6.3-14.7h3.1l3.8 9.6c.1.4.5 1.4 1.1 3.2l.6-1.6.6-1.6 3.9-9.6h3l-6.4 14.7zm10.7-6.8c0 1.7.4 3 1.2 3.9s2 1.4 3.6 1.4c1.2 0 2.2-.2 3-.6.7-.4 1.3-1 1.5-1.6l2.5.6c-1 2.3-3.4 3.5-7 3.5-2.6 0-4.5-.6-5.8-1.9s-2-3.2-2-5.8c0-2.4.7-4.3 2-5.6 1.3-1.3 3.2-1.9 5.7-1.9 5.1 0 7.6 2.6 7.6 7.8v.3l-12.3-.1zm9.3-1.9c-.2-1.5-.6-2.7-1.4-3.4-.8-.7-1.9-1.1-3.3-1.1s-2.5.4-3.3 1.2c-.8.8-1.3 1.9-1.3 3.3h9.3zm6.3 8.7v-20.1h2.9v20.1h-2.9zm21.6-7.3c0 2.6-.7 4.5-2 5.7-1.3 1.3-3.3 1.9-5.8 1.9s-4.4-.7-5.7-2-1.9-3.2-1.9-5.7c0-5.1 2.6-7.6 7.7-7.6 2.6 0 4.6.6 5.8 1.9 1.3 1.3 1.9 3.2 1.9 5.8zm-3 0c0-2-.4-3.5-1.1-4.4-.7-.9-1.9-1.4-3.6-1.4-1.7 0-2.9.5-3.6 1.4-.8.9-1.1 2.4-1.1 4.4 0 1.9.4 3.4 1.1 4.4.7 1 1.9 1.5 3.5 1.5 1.7 0 3-.5 3.7-1.4.7-1.1 1.1-2.5 1.1-4.5zm20.8-.1c0 5.1-2.1 7.7-6.4 7.7-2.7 0-4.4-.9-5.4-2.6h-.1c0 .1.1.8.1 2.3v5.7h-2.9v-17.5c0-1.5 0-2.5-.1-3h2.8v.4c0 .2 0 .6.1 1v1h.1c.5-.9 1.2-1.6 2-2s1.9-.6 3.3-.6c2.1 0 3.7.6 4.8 1.8 1.2 1.3 1.7 3.2 1.7 5.8zm-3 .1c0-2-.3-3.5-1-4.4-.6-.9-1.7-1.3-3.1-1.3-1.1 0-2 .2-2.7.6-.6.4-1.1 1-1.5 1.9-.3.9-.5 2-.5 3.4 0 1.9.4 3.3 1.1 4.3s1.9 1.4 3.5 1.4c1.4 0 2.5-.4 3.1-1.3.8-1 1.1-2.5 1.1-4.6zm20.9-.1c0 5.1-2.1 7.7-6.4 7.7-2.7 0-4.4-.9-5.4-2.6h-.1c0 .1.1.8.1 2.3v5.7h-2.9v-17.5c0-1.5 0-2.5-.1-3h2.8v.4c0 .2 0 .6.1 1v1h.1c.5-.9 1.2-1.6 2-2s1.9-.6 3.3-.6c2.1 0 3.7.6 4.8 1.8 1.2 1.3 1.7 3.2 1.7 5.8zm-3 .1c0-2-.3-3.5-1-4.4-.6-.9-1.7-1.3-3.1-1.3-1.1 0-2 .2-2.7.6-.6.4-1.1 1-1.5 1.9-.3.9-.5 2-.5 3.4 0 1.9.4 3.3 1.1 4.3.7.9 1.9 1.4 3.5 1.4 1.4 0 2.5-.4 3.1-1.3.8-1 1.1-2.5 1.1-4.6zm8.5.5c0 1.7.4 3 1.2 3.9s2 1.4 3.6 1.4c1.2 0 2.2-.2 3-.6.7-.4 1.3-1 1.5-1.6l2.5.6c-1 2.3-3.4 3.5-7 3.5-2.6 0-4.5-.6-5.8-1.9s-2-3.2-2-5.8c0-2.4.7-4.3 2-5.6 1.3-1.3 3.2-1.9 5.7-1.9 5.1 0 7.6 2.6 7.6 7.8v.3l-12.3-.1zm9.3-1.9c-.2-1.5-.6-2.7-1.4-3.4-.8-.7-1.9-1.1-3.3-1.1s-2.5.4-3.3 1.2c-.8.8-1.3 1.9-1.3 3.3h9.3zm16.4 8.7v-9.3c0-1.4-.2-2.4-.7-2.9s-1.3-.8-2.5-.8-2.2.4-2.9 1.2c-.7.8-1.1 1.9-1.1 3.4v8.5h-2.9V203c0-1.7 0-2.8-.1-3.1h2.7v1.1c0 .3 0 .7.1 1.5.6-1 1.3-1.8 2.1-2.2.8-.4 1.8-.6 2.9-.6 1.3 0 2.3.2 3.1.7.8.4 1.3 1.1 1.6 2.1.6-1 1.3-1.7 2.2-2.1.8-.4 1.9-.7 3.1-.7 1.7 0 3 .4 3.8 1.2.8.8 1.2 2.1 1.2 4v9.8H385v-9.3c0-1.4-.2-2.4-.7-2.9s-1.3-.8-2.5-.8c-1.3 0-2.2.4-2.9 1.2-.7.8-1 1.9-1 3.4v8.5h-2.7v-.3zm19-6.8c0 1.7.4 3 1.2 3.9s2 1.4 3.6 1.4c1.2 0 2.2-.2 3-.6.7-.4 1.3-1 1.5-1.6l2.5.6c-1 2.3-3.4 3.5-7 3.5-2.6 0-4.5-.6-5.8-1.9s-2-3.2-2-5.8c0-2.4.7-4.3 2-5.6 1.3-1.3 3.2-1.9 5.7-1.9 5.1 0 7.6 2.6 7.6 7.8v.3l-12.3-.1zm9.4-1.9c-.2-1.5-.6-2.7-1.4-3.4-.8-.7-1.9-1.1-3.3-1.1s-2.5.4-3.3 1.2c-.8.8-1.3 1.9-1.3 3.3h9.3zm17.3 8.7v-9.3c0-1-.1-1.7-.3-2.3-.2-.5-.6-.9-1.1-1.2-.5-.2-1.2-.4-2.2-.4-1.4 0-2.5.4-3.3 1.2-.8.8-1.2 1.9-1.2 3.4v8.5H410v-11.6c0-1.7 0-2.8-.1-3.1h2.7v1.1c0 .3 0 .7.1 1.5.7-1 1.4-1.7 2.3-2.2.9-.4 1.9-.6 3.2-.6 1.9 0 3.3.4 4.2 1.2.9.8 1.3 2.1 1.3 4v9.8h-2.8zm13.5-.1c-.9.2-1.9.3-2.9.3-2.3 0-3.4-1.1-3.4-3.3v-9.8h-2v-1.8h2.1l.8-3.3h1.9v3.3h3.2v1.8h-3.2v9.3c0 .7.1 1.2.4 1.5.3.3.7.4 1.4.4.4 0 .9-.1 1.7-.2v1.8z"/></svg>